<svg xmlns="http://www.w3.org/2000/svg" width="48" height="48" viewBox="0 0 100 100">
  <rect x="0" y="0" width="100" height="100" fill="#6e8efb" rx="10"/>
  <rect x="25" y="30" width="50" height="40" fill="#ff7e5f"/>
  <rect x="35" y="50" width="10" height="20" fill="#fff"/>
  <rect x="55" y="50" width="10" height="20" fill="#fff"/>
  <polygon points="20,30 80,30 70,15 30,15" fill="#a777e3"/>
  <rect x="60" y="15" width="5" height="15" fill="#ff7e5f"/>
  <rect x="58" y="10" width="9" height="5" fill="#ff7e5f"/>
  <rect x="43" y="50" width="14" height="20" fill="#ffb85c"/>
  <circle cx="50" cy="60" r="2" fill="#fff"/>
  <rect x="30" y="35" width="8" height="8" fill="#a777e3" rx="1"/>
  <rect x="62" y="35" width="8" height="8" fill="#a777e3" rx="1"/>
  <circle cx="15" cy="25" r="5" fill="#ffb85c"/>
  <circle cx="85" cy="25" r="5" fill="#ffb85c"/>
  <circle cx="15" cy="75" r="5" fill="#ffb85c"/>
  <circle cx="85" cy="75" r="5" fill="#ffb85c"/>
  <circle cx="62.5" cy="5" r="3" fill="#fff" opacity="0.8"/>
  <circle cx="65" cy="2" r="2" fill="#fff" opacity="0.6"/>
</svg>